<?xml version="1.0" encoding="UTF-8"?>
<svg fill="#AAAAAA" width="100pt" height="100pt" version="1.1" viewBox="0 0 100 100" xmlns="http://www.w3.org/2000/svg">
 <g>
  <path d="m83.594 15.625h-5.4688v-3.125c0-1.7266-1.3984-3.125-3.125-3.125s-3.125 1.3984-3.125 3.125v3.125h-43.75v-3.125c0-1.7266-1.3984-3.125-3.125-3.125s-3.125 1.3984-3.125 3.125v3.125h-5.4688c-3.875 0-7.0312 3.1562-7.0312 7.0312v60.938c0 3.875 3.1562 7.0312 7.0312 7.0312h67.188c3.875 0 7.0312-3.1562 7.0312-7.0312v-60.938c0-3.875-3.1562-7.0312-7.0312-7.0312zm-67.188 6.25h5.4688v3.125c0 1.7266 1.3984 3.125 3.125 3.125s3.125-1.3984 3.125-3.125v-3.125h43.75v3.125c0 1.7266 1.3984 3.125 3.125 3.125s3.125-1.3984 3.125-3.125v-3.125h5.4688c0.42969 0 0.78125 0.35156 0.78125 0.78125v8.5938h-68.75v-8.5938c0-0.42969 0.35156-0.78125 0.78125-0.78125zm67.188 62.5h-67.188c-0.42969 0-0.78125-0.35156-0.78125-0.78125v-46.094h68.75v46.094c0 0.42969-0.35156 0.78125-0.78125 0.78125z"/>
  <path d="m40.625 46.875c0 4.168-6.25 4.168-6.25 0s6.25-4.168 6.25 0"/>
  <path d="m53.125 46.875c0 4.168-6.25 4.168-6.25 0s6.25-4.168 6.25 0"/>
  <path d="m65.625 46.875c0 4.168-6.25 4.168-6.25 0s6.25-4.168 6.25 0"/>
  <path d="m78.125 46.875c0 4.168-6.25 4.168-6.25 0s6.25-4.168 6.25 0"/>
  <path d="m28.125 59.375c0 4.168-6.25 4.168-6.25 0s6.25-4.168 6.25 0"/>
  <path d="m40.625 59.375c0 4.168-6.25 4.168-6.25 0s6.25-4.168 6.25 0"/>
  <path d="m53.125 59.375c0 4.168-6.25 4.168-6.25 0s6.25-4.168 6.25 0"/>
  <path d="m65.625 59.375c0 4.168-6.25 4.168-6.25 0s6.25-4.168 6.25 0"/>
  <path d="m78.125 59.375c0 4.168-6.25 4.168-6.25 0s6.25-4.168 6.25 0"/>
  <path d="m28.125 71.875c0 4.168-6.25 4.168-6.25 0s6.25-4.168 6.25 0"/>
  <path d="m40.625 71.875c0 4.168-6.25 4.168-6.25 0s6.25-4.168 6.25 0"/>
  <path d="m50 65.625c-3.4453 0-6.25 2.8047-6.25 6.25s2.8047 6.25 6.25 6.25 6.25-2.8047 6.25-6.25-2.8047-6.25-6.25-6.25z"/>
 </g>
</svg>
